<?xml version="1.0" standalone="no"?>
<!DOCTYPE svg PUBLIC "-//W3C//DTD SVG 20010904//EN"
 "http://www.w3.org/TR/2001/REC-SVG-20010904/DTD/svg10.dtd">
<svg version="1.0" xmlns="http://www.w3.org/2000/svg"
 width="400.000000pt" height="400.000000pt" viewBox="0 0 400.000000 400.000000"
 preserveAspectRatio="xMidYMid meet">
<metadata>
Created by potrace 1.11, written by Peter Selinger 2001-2013
</metadata>
<g transform="translate(0.000000,400.000000) scale(0.100000,-0.100000)"
fill="#000000" stroke="none">
<path d="M3511 3638 c-21 -47 -117 -201 -179 -288 -78 -110 -166 -204 -257
-274 -80 -62 -109 -80 -280 -171 -231 -123 -355 -227 -445 -373 -61 -98 -105
-118 -157 -70 -36 34 -45 79 -48 256 -4 176 -7 205 -26 228 -6 8 -8 14 -4 14
4 0 -3 8 -16 19 l-23 18 21 22 c23 25 35 65 46 154 5 42 -4 49 -20 14 -29 -63
-112 -122 -208 -147 -54 -14 -71 -29 -94 -82 -18 -42 -23 -47 -70 -58 -89 -21
-129 -80 -99 -144 l11 -26 25 25 c32 32 78 33 115 1 15 -13 30 -32 32 -42 2
-11 8 -35 13 -55 27 -107 -28 -219 -106 -219 -23 0 -59 40 -98 106 -14 24 -30
44 -35 44 -5 0 -9 6 -9 13 0 20 -138 147 -215 198 -39 26 -115 70 -170 99
-219 116 -295 168 -400 275 -90 90 -214 265 -299 418 -21 37 -40 67 -43 67 -5
0 4 -259 11 -300 2 -14 7 -52 11 -85 4 -33 9 -76 11 -95 l5 -35 -45 50 c-25
28 -65 78 -88 112 -24 34 -46 63 -49 63 -10 0 4 -217 16 -260 2 -8 6 -32 10
-54 8 -59 53 -185 87 -246 16 -30 49 -74 71 -97 49 -51 38 -54 -55 -19 -60 22
-105 45 -175 88 -22 13 -31 15 -28 6 2 -7 6 -26 8 -43 7 -48 67 -214 105 -290
50 -100 107 -180 178 -251 55 -55 59 -62 36 -58 -41 7 -93 25 -135 46 -22 11
-41 17 -43 15 -7 -7 43 -116 73 -162 49 -74 137 -152 212 -187 39 -18 71 -35
71 -38 0 -7 -55 -39 -139 -81 l-73 -36 100 -32 c55 -18 106 -33 114 -35 7 -1
18 -4 23 -7 6 -4 26 -9 45 -13 19 -3 46 -8 60 -11 97 -20 133 -25 205 -30 116
-8 258 -4 320 9 87 19 127 30 182 52 70 28 150 71 158 85 13 20 33 6 58 -40
l27 -49 -30 -57 c-16 -31 -38 -69 -49 -83 -49 -70 -103 -200 -116 -282 -26
-156 8 -342 89 -490 28 -53 106 -170 112 -170 2 0 2 29 0 65 -3 70 21 145 47
145 34 0 101 -228 106 -362 1 -34 5 -65 8 -68 16 -16 203 228 245 320 98 211
129 394 105 604 -13 113 -28 158 -108 318 -58 115 -58 117 -40 139 l18 22 29
-20 c66 -46 203 -105 274 -117 8 -2 31 -6 50 -10 75 -15 279 -22 340 -12 14 3
45 7 70 10 25 4 59 9 75 12 17 3 39 7 50 9 11 1 20 3 20 4 0 2 11 4 25 7 32 5
81 19 199 57 l93 31 -73 35 c-94 46 -161 91 -135 91 11 0 49 16 85 36 86 46
186 150 227 235 42 85 51 114 33 106 -69 -30 -140 -56 -166 -60 -31 -6 -29 -4
36 61 91 90 151 182 210 321 24 58 64 184 74 239 l7 32 -53 -31 c-79 -46 -219
-107 -254 -109 -1 0 21 23 48 52 27 28 49 56 49 61 0 5 8 21 18 35 19 27 58
120 67 157 3 11 11 47 19 80 16 68 25 142 32 258 l4 80 -49 -69 c-27 -38 -70
-91 -96 -119 l-46 -50 6 41 c3 23 8 59 11 80 3 22 8 53 10 69 6 44 17 335 12
335 -1 0 -10 -14 -17 -32z"/>
</g>
</svg>
